<svg height="479pt" viewBox="-63 1 479 479.99997" width="479pt" xmlns="http://www.w3.org/2000/svg"><path d="m8.527344 208c.007812 62.875 33.554687 120.972656 88.007812 152.40625s121.542969 31.429688 175.992188-.007812l-16-27.679688c-49.164063 28.492188-110.492188 25.355469-156.492188-8.003906-46-33.355469-68.039062-90.675782-56.234375-146.257813 8.292969-40.070312 33.296875-74.695312 68.726563-95.167969l-16-27.6875c-54.472656 31.410157-88.027344 89.519532-88 152.398438zm0 0" fill="#acabb1"/><path d="m344.527344 440h-320v32h320zm0 0" fill="#787680"/><path d="m122.175781 244c-13.515625-22.988281-23.355469-47.949219-29.167969-73.976562-15.914062 5.152343-32.488281 7.992187-49.207031 8.433593-7.414062 34.660157-1.714843 70.839844 16 101.542969l62.351563-36zm0 0" fill="#57a4ff"/><path d="m197.398438 109.753906c12.414062-11.210937 23.15625-24.140625 31.898437-38.402344-38.84375-12.847656-81.324219-8.511718-116.769531 11.921876 21.894531-12.585938 54.097656-1.128907 84.871094 26.480468zm0 0" fill="#57a4ff"/><path d="m197.398438 109.753906c19.632812 18.046875 36.328124 39.046875 49.480468 62.246094l62.351563-36c-17.71875-30.6875-46.191407-53.710938-79.902344-64.625-8.753906 14.253906-19.503906 27.179688-31.929687 38.378906zm0 0" fill="#57a4ff"/><path d="m112.558594 83.28125v-.007812l-.03125.015624zm0 0" fill="#ffdaaa"/><g fill="#57a4ff"><path d="m171.65625 306.246094c-19.632812-18.046875-36.328125-39.046875-49.480469-62.246094l-62.351562 36c17.714843 30.714844 46.179687 53.78125 79.902343 64.734375 8.738282-14.292969 19.492188-27.257813 31.929688-38.488281zm0 0"/><path d="m112.527344 83.289062c-35.4375 20.480469-60.441406 55.117188-68.726563 95.199219 16.71875-.441406 33.292969-3.28125 49.207031-8.433593-8.527343-40.511719-2.34375-74.144532 19.519532-86.765626zm0 0"/><path d="m246.878906 172c13.515625 22.988281 23.359375 47.949219 29.167969 73.976562 15.949219-5.167968 32.5625-8.007812 49.320313-8.441406 7.351562-34.675781 1.605468-70.847656-16.136719-101.535156zm0 0"/><path d="m148.527344 145.648438 36 62.351562 62.351562-36c-13.152344-23.199219-29.847656-44.199219-49.480468-62.246094-14.882813 13.769532-31.277344 25.8125-48.871094 35.894532zm0 0"/><path d="m93.007812 170.023438c19.367188-6.003907 37.992188-14.183594 55.519532-24.375l-36-62.359376c-21.863282 12.621094-28.046875 46.253907-19.519532 86.734376zm0 0"/><path d="m220.527344 270.351562c17.519531-10.1875 36.132812-18.363281 55.488281-24.367187-5.800781-26.027344-15.628906-50.992187-29.136719-73.984375l-62.351562 36zm0 0"/><path d="m197.375 109.777344c-30.773438-27.609375-62.976562-39.066406-84.800781-26.472656l.050781.078124-.097656-.101562 36 62.398438c17.585937-10.085938 33.972656-22.128907 48.847656-35.902344zm0 0"/><path d="m122.175781 244c13.152344 23.199219 29.847657 44.199219 49.480469 62.246094 14.882812-13.769532 31.277344-25.8125 48.871094-35.894532l-36-62.351562zm0 0"/><path d="m148.527344 145.648438c-17.519532 10.1875-36.132813 18.363281-55.488282 24.367187 5.800782 26.027344 15.632813 50.992187 29.136719 73.984375l62.351563-36zm0 0"/><path d="m171.65625 306.246094c-12.460938 11.226562-23.238281 24.1875-32 38.488281 38.886719 12.863281 81.417969 8.492187 116.871094-12.015625-21.894532 12.59375-54.097656 1.136719-84.871094-26.472656zm0 0"/><path d="m256.527344 332.703125c35.453125-20.476563 60.484375-55.109375 68.800781-95.199219-16.761719.433594-33.371094 3.273438-49.320313 8.441406 8.566407 40.511719 2.382813 74.144532-19.480468 86.757813zm0 0"/></g><path d="m256.496094 332.71875.03125-.015625zm0 0" fill="#ffdaaa"/><path d="m171.679688 306.222656c30.75 27.632813 62.953124 39.089844 84.847656 26.496094l-.046875-.078125.046875.078125-36-62.351562c-17.582032 10.070312-33.96875 22.101562-48.847656 35.855468zm0 0" fill="#57a4ff"/><path d="m276.046875 245.976562c-19.367187 6.003907-37.992187 14.183594-55.519531 24.375l36 62.351563c21.863281-12.613281 28.046875-46.246094 19.519531-86.726563zm0 0" fill="#57a4ff"/><path d="m96.527344 24c0-7.058594-4.625-13.285156-11.386719-15.320312-6.761719-2.039063-14.054687.597656-17.953125 6.484374-3.898438 5.886719-3.476562 13.632813 1.035156 19.0625 4.515625 5.429688 12.054688 7.257813 18.554688 4.5 5.910156-2.507812 9.75-8.304687 9.75-14.726562zm0 0" fill="#acabb1"/><path d="m168.527344 384h32v56h-32zm0 0" fill="#787680"/><path d="m344.527344 432h-136v-41.601562c21.289062-2.796876 41.917968-9.332032 60.9375-19.300782l9.757812 16.871094c2.226563 3.792969 7.09375 5.082031 10.902344 2.882812 3.808594-2.199218 5.128906-7.0625 2.953125-10.882812l-25.863281-44.722656c33.863281-21.992188 57.597656-56.542969 65.976562-96.046875l2.054688-9.742188h-.460938c8.105469-56.109375-15.757812-112.058593-61.863281-145.046875-46.109375-32.984375-106.761719-37.507812-157.25-11.722656l-18.304687-31.625c8.152343-8.0625 9.464843-20.765625 3.128906-30.320312-6.335938-9.558594-18.542969-13.300782-29.144532-8.933594-10.601562 4.367187-16.632812 15.621094-14.402343 26.867187 2.234375 11.246094 12.113281 19.339844 23.578125 19.324219.800781 0 1.488281-.152344 2.242187-.222656l2.964844 5.125c-65.289063 41.503906-97.617187 119.429687-80.878906 194.960937s78.960937 132.503907 155.671875 142.535157v41.601562h-136c-4.417969 0-8 3.582031-8 8v32c0 4.417969 3.582031 8 8 8h320c4.417968 0 8-3.582031 8-8v-32c0-4.417969-3.582032-8-8-8zm-272-408c0-4.417969 3.582031-8 8-8 4.417968 0 8 3.582031 8 8s-3.582032 8-8 8c-4.417969 0-8-3.582031-8-8zm128.351562 318.855469c-1.871094.222656-3.742187.375-5.597656.527343-2.664062.210938-5.335938.351563-8 .402344-1.882812.039063-3.769531 0-5.65625 0-2.6875-.058594-5.371094-.21875-8.050781-.433594-1.871094-.152343-3.742188-.3125-5.597657-.542968-2.714843-.335938-5.417968-.800782-8.113281-1.296875-1.816406-.34375-3.632812-.648438-5.441406-1.0625-.679687-.152344-1.34375-.386719-2.023437-.546875 5.867187-8.175782 12.4375-15.820313 19.640624-22.847656 4.753907 4.019531 9.726563 7.777343 14.886719 11.257812 7.746094 5.203125 16.066407 9.484375 24.800781 12.757812-.941406.195313-1.886718.371094-2.824218.539063-2.679688.480469-5.34375.925781-8.023438 1.246094zm-129.808594-60.113281 48.34375-27.910157c11.386719 18.800781 25.050782 36.121094 40.691407 51.566407-8.816407 8.699218-16.714844 18.277343-23.578125 28.585937-26.792969-10.058594-49.707032-28.347656-65.457032-52.242187zm164.738282-113.597657-48.351563 27.917969-28.105469-48.6875c13.382813-8.171875 26.042969-17.472656 37.839844-27.800781 14.832032 14.535156 27.804688 30.851562 38.617188 48.578125zm76.613281 84.34375c-.894531 2.519531-1.820313 5.023438-2.863281 7.472657-.757813 1.800781-1.597656 3.558593-2.398438 5.320312-1.128906 2.398438-2.304687 4.703125-3.550781 6.992188-.945313 1.71875-1.914063 3.40625-2.929687 5.078124-1.34375 2.230469-2.777344 4.417969-4.25 6.570313-1.09375 1.597656-2.199219 3.199219-3.359376 4.742187-1.597656 2.113282-3.261718 4.152344-4.964843 6.167969-.664063.800781-1.335938 1.601563-2.019531 2.335938 2.417968-15.4375 2.167968-31.175781-.734376-46.527344 9.648438-2.726563 19.515626-4.601563 29.488282-5.601563-.191406.65625-.328125 1.328126-.527344 1.976563-.585938 1.886719-1.25 3.679687-1.890625 5.480469zm-179.148437-6.664062 48.328124-27.902344 28.101563 48.6875c-13.375 8.167969-26.027344 17.460937-37.824219 27.78125-14.828125-14.527344-27.796875-30.835937-38.605468-48.558594zm-23.058594-151.527344 27.273437 47.199219c-12.28125 6.671875-25.078125 12.339844-38.273437 16.953125-4.542969-28.25-1.039063-51.847657 11-64.152344zm35.273437 61.09375 28.113281 48.679687-48.328124 27.90625c-9.945313-18.226562-17.59375-37.617187-22.761719-57.730468 14.835937-5.046875 29.214843-11.355469 42.976562-18.855469zm72.214844 125.082031 27.273437 47.199219c-16.671874 4.28125-38.832031-4.472656-61.082031-22.566406 10.589844-9.105469 21.898438-17.34375 33.808594-24.632813zm41.136719 39.199219-27.273438-47.199219c12.28125-6.671875 25.082032-12.339844 38.273438-16.953125 4.542968 28.28125 1.039062 51.878907-11 64.183594zm-35.273438-61.0625-28.109375-48.679687 48.328125-27.90625c9.945313 18.226562 17.589844 37.617187 22.757813 57.730468-14.835938 5.046875-29.214844 11.355469-42.976563 18.855469zm-72.214844-125.082031-27.328124-47.328125c2.878906-.722657 5.832031-1.085938 8.800781-1.078125 15.296875 0 33.792969 8.6875 52.3125 23.75-10.582031 9.117187-21.878907 17.359375-33.785157 24.65625zm-67.625 29.777344c-9.667968 2.71875-19.558593 4.59375-29.550781 5.597656 5.621094-19.355469 15.476563-37.222656 28.847657-52.300782-2.457032 15.492188-2.21875 31.289063.703124 46.703126zm-33.328124 21.808593c12.375-.78125 24.636718-2.832031 36.59375-6.121093 5.605468 21.253906 13.816406 41.734374 24.449218 60.976562l-48.320312 27.894531c-12.890625-25.542969-17.351563-54.515625-12.738282-82.75zm268.136718 43.78125c-12.324218.785157-24.535156 2.835938-36.441406 6.113281-5.601562-21.253906-13.8125-41.738281-24.445312-60.976562l48.351562-27.917969c12.8125 25.578125 17.195312 54.558594 12.519531 82.78125zm-20.566406-96.628906-48.328125 27.902344c-11.386719-18.800781-25.050781-36.121094-40.6875-51.566407 8.871094-8.742187 16.816406-18.375 23.710937-28.746093 26.785157 10.082031 49.664063 28.4375 65.304688 52.410156zm-113.777344-61.265625c10.972656.023438 21.902344 1.367188 32.550782 4-5.890626 8.195312-12.492188 15.859375-19.726563 22.902344-4.761719-4-9.738281-7.738282-14.902344-11.199219-7.902343-5.277344-16.402343-9.585937-25.328125-12.839844 9.011719-1.890625 18.195313-2.847656 27.40625-2.863281zm-167.664062 136c.109375-57.132812 29.179687-110.3125 77.214844-141.246094l8.074218 13.933594c-47.652344 30.777344-74.132812 85.585938-68.628906 142.046875 5.507812 56.460937 42.078125 105.121094 94.78125 126.113281l-.226562.382813 9.449218 3.105469c38.390625 12.632812 80.234375 9.421874 116.25-8.921876l8 13.867188c-52.0625 26.878906-114.375 24.675781-164.40625-5.820312-50.03125-30.496094-80.542968-84.867188-80.507812-143.460938zm160 183.800781c2.65625.109375 5.320312.199219 8 .199219 2.679687 0 5.335937-.144531 8-.265625v40.265625h-16zm160 72.199219h-304v-16h304zm0 0" fill="#231f20"/></svg>