<svg height="464pt" viewBox="-26 0 464 464" width="464pt" xmlns="http://www.w3.org/2000/svg"><path d="m269.925781 16c0-8.835938-7.164062-16-16-16h-96c-8.835937 0-16 7.164062-16 16s7.164063 16 16 16h96c8.835938 0 16-7.164062 16-16zm0 0" fill="#787680"/><path d="m379.84375 464h-347.839844c-11.667968 0-22.410156-6.347656-28.035156-16.566406-5.628906-10.222656-5.246094-22.695313.996094-32.554688l80.160156-126.878906h241.601562l80.15625 126.878906c6.242188 9.859375 6.625 22.332032 1 32.554688-5.625 10.21875-16.371093 16.566406-28.039062 16.566406zm0 0" fill="#7ed63e"/><path d="m245.925781 160v-128h-80v128l-80.800781 128h241.601562zm0 0" fill="#e6e7e8"/><g fill="#ffcd00"><path d="m317.925781 352c0 17.671875-14.328125 32-32 32-17.675781 0-32-14.328125-32-32s14.324219-32 32-32c17.671875 0 32 14.328125 32 32zm0 0"/><path d="m229.925781 408c0 13.253906-10.746093 24-24 24-13.257812 0-24-10.746094-24-24s10.742188-24 24-24c13.253907 0 24 10.746094 24 24zm0 0"/></g></svg>